<svg width="122" height="114" viewBox="0 0 122 114" fill="none" xmlns="http://www.w3.org/2000/svg">
<path d="M72.4028 54.3659V112.555" stroke="#2A272D" stroke-width="1.9882" stroke-miterlimit="10"/>
<path d="M114.631 54.3659V112.555" stroke="#2A272D" stroke-width="1.9882" stroke-miterlimit="10"/>
<path d="M47.4345 72.334C47.4345 72.334 55.5378 70.5031 56.7578 75.7609C57.8114 80.2726 46.7898 80.0999 46.7898 80.0999L22.5562 80.2449C22.5562 80.2449 13.427 81.2951 8.91439 70.8002C4.40178 60.3053 0.0555291 32.8209 0.0555291 32.8209C0.0555291 32.8209 -0.596063 29.0417 2.56485 28.4889C6.2803 27.8395 7.00814 35.8402 7.00814 35.8402C7.00814 35.8402 12.6229 69.7639 20.7747 71.422C22.0294 71.6777 23.0276 72.6242 24.31 72.6104L47.4345 72.334Z" fill="#FFEEE3"/>
<path d="M68.9715 44.9308L76.6243 44.4057C77.2482 44.3642 77.8443 44.6475 78.1978 45.1519L82.4748 51.598L78.8356 51.7708L76.7838 48.6271C76.7838 48.6271 70.8709 50.0988 68.6873 48.6271L68.9715 44.9308Z" fill="#F2C09E"/>
<path d="M38.1457 24.0469L48.3701 42.9847L69.6162 43.6618V50.6261L47.1778 51.6072C44.211 51.7385 41.3967 50.3221 39.733 47.8694L29.5225 29.5949L38.1457 24.0469Z" fill="#EFC375"/>
<path d="M69.6163 43.6572V50.6216L67.2454 50.7252V43.5812L69.6163 43.6572Z" fill="#F7E5DA"/>
<path d="M58.4835 99.7935L59.6827 108.167L65.7272 107.794L64.8608 99.151L58.4835 99.7935Z" fill="#FCC9A7"/>
<path d="M58.3311 107.318C58.4628 106.924 58.9342 106.765 59.2738 107.007C59.9393 107.476 61.1108 108.036 62.7952 107.822C64.549 107.601 65.1659 106.668 65.3808 106.012C65.4917 105.666 65.866 105.48 66.2057 105.611L77.1026 109.867C77.7681 110.123 78.2949 110.634 78.5791 111.283C78.8425 111.891 78.4058 112.575 77.7334 112.589L59.2808 112.859C58.5529 112.872 57.9707 112.271 57.9984 111.546L58.1301 107.995C58.1301 107.932 58.144 107.877 58.1647 107.822L58.3311 107.318Z" fill="#1F252A"/>
<path d="M40.1211 22.4221L41.854 25.1927C41.965 25.4552 42.0135 26.0909 41.5352 26.3258L40.8628 26.8094L39.421 24.6123L40.1211 22.4221Z" fill="#FFEEE3"/>
<path d="M36.8909 25.3518L36.3433 25.0893C34.541 24.2118 33.7924 22.0424 34.6728 20.246L40.5232 8.30708L47.0183 11.4714L40.2598 24.8405C39.5389 26.326 38.3813 26.0773 36.8909 25.3518Z" fill="#FCC9A7"/>
<path d="M51.8637 13.8292C49.9574 17.7121 45.2507 19.3289 41.355 17.4289C37.4593 15.5289 35.8373 10.8445 37.7435 6.95469C39.6498 3.07176 44.3496 1.45503 48.2522 3.35503C52.1548 5.25503 53.7699 9.94632 51.8637 13.8292Z" fill="#FCC9A7"/>
<path d="M42.3811 21.551C40.5303 20.6528 39.7608 18.4211 40.6689 16.5764L43.9685 9.84006L51.9262 13.7161L49.2366 19.2088C47.9889 21.7375 44.9181 22.7946 42.3811 21.551Z" fill="#FCC9A7"/>
<path d="M50.8933 15.3025L51.3231 18.3149C51.3578 18.7916 50.8517 19.1025 50.4081 18.8884L48.4533 18.3564L50.8933 15.3025Z" fill="#FCC9A7"/>
<path d="M44.0029 13.7945C44.0029 13.7945 46.7548 13.9741 47.2054 9.73885C47.2054 9.73885 51.9884 12.7788 53.9362 11.5698C53.9362 11.5698 54.5323 -0.41059 44.599 0.0108645C34.6657 0.432319 33.8894 11.1207 33.8894 11.1207L39.4626 16.1367L44.0029 13.7945Z" fill="#1C2226"/>
<path d="M44.398 13.9678C43.8781 15.0387 42.5819 15.4809 41.5075 14.9558C40.44 14.4307 39.9894 13.1456 40.5162 12.0747C41.0361 11.0038 42.3323 10.5616 43.4068 11.0867C44.4743 11.6118 44.9179 12.8969 44.398 13.9678Z" fill="#FCC9A7"/>
<path d="M38.3329 12.377L36.8564 15.8108C36.8564 15.8108 40.1005 18.4017 41.7364 15.0647L39.3796 14.4014L38.3329 12.377Z" fill="#1C2226"/>
<path d="M47.2054 9.73705C47.2054 9.73705 53.6867 14.7254 56.2445 10.5454C58.2825 7.20833 56.0158 5.0458 52.7439 5.58471C51.3298 5.81962 50.6297 4.86617 49.5206 4.11307L47.2054 9.73705Z" fill="#1C2226"/>
<path d="M41.3827 28.4856C41.3827 28.4856 41.2372 25.4386 40.2667 24.3816C39.2963 23.3245 34.1251 20.4088 34.1251 20.4088C34.1251 20.4088 26.6873 22.5576 22.1192 31.0281C18.5632 37.6263 15.2151 54.3256 15.2151 54.3256L36.676 57.4277C38.5268 44.9499 41.9927 39.2637 41.3827 28.4856Z" fill="#FFD686"/>
<path d="M34.4855 19.8194L33.5913 20.2201C33.2725 20.3652 33.2031 20.7936 33.4665 21.0285L39.1368 26.0583C39.3655 26.2656 39.726 26.2034 39.8854 25.9409L40.5231 24.8423C40.641 24.6351 40.5925 24.3725 40.4053 24.2205L34.9846 19.8954C34.846 19.7711 34.6519 19.7434 34.4855 19.8194Z" fill="#FFEEE3"/>
<path d="M66.6076 46.0643L74.2606 45.5392C74.8844 45.4978 75.4806 45.781 75.8341 46.2854L79.7575 51.8472L76.0906 52.317L74.42 49.7538C74.42 49.7538 68.507 51.2254 66.3234 49.7538L66.6076 46.0643Z" fill="#FCC9A7"/>
<path d="M33.7994 25.4557L45.3478 44.8772L67.2524 45.4782V51.7586L43.6149 52.788C41.3967 52.8847 39.2825 51.8276 38.0348 49.9898L25.1762 31.0036L33.7994 25.4557Z" fill="#FFD686"/>
<path d="M67.2522 45.4758V51.7493L64.8816 51.8529V45.4758H67.2522Z" fill="#FFEEE3"/>
<path d="M15.2153 54.3227L57.43 60.4235C60.6603 60.8933 63.1557 63.498 63.4677 66.7384L66.6147 102.576L57.1874 103.184L52.654 72.1205L26.1468 72.8045C18.9515 72.8045 13.4338 66.4344 14.4805 59.3387L15.2153 54.3227Z" fill="#54585A"/>
<path d="M90.0374 51.6077H67.7724V53.0448H90.0374V51.6077Z" fill="#2A272D"/>
<path d="M90.0443 53.0454L97.2465 32.0764L95.7353 31.717L88.6718 51.8571L90.0443 53.0454Z" fill="#2A272D"/>
<path d="M42.0274 21.3625C42.0274 21.3625 40.0241 20.181 40.0241 17.6938C40.0241 17.6938 38.7764 20.3883 41.3204 22.7581L42.0274 21.3625Z" fill="#F2C09E"/>
<path d="M9.16399 113.908C9.49672 113.908 9.80172 113.68 9.89183 113.342L20.9134 70.0285C21.8284 66.4428 25.0517 63.9348 28.7672 63.9348C32.3717 63.9348 35.5742 66.3461 36.5585 69.8005C40.4126 83.3354 49.3824 112.865 49.4725 113.162C49.5904 113.556 50.0132 113.784 50.4083 113.659C50.8034 113.542 51.0322 113.12 50.9074 112.727C50.8173 112.43 41.8475 82.9139 38.0004 69.3928C36.8358 65.2959 33.0372 62.4355 28.7602 62.4355C24.3585 62.4355 20.5322 65.4064 19.4508 69.6554L8.42922 112.975C8.32524 113.376 8.56786 113.784 8.9699 113.887C9.03922 113.901 9.10161 113.908 9.16399 113.908Z" fill="#1F252A"/>
<path d="M38.0419 49.9864L31.422 40.2239" stroke="#EFC375" stroke-width="0.7847" stroke-miterlimit="10" stroke-linecap="round" stroke-linejoin="round"/>
<path d="M121.924 53.0434H64.2442V55.6344H121.924V53.0434Z" fill="#FFEEE3"/>
<path d="M72.4028 61.9281H114.631" stroke="#2A272D" stroke-width="1.9882" stroke-miterlimit="10"/>
<path d="M41.9237 38.637L35.5811 28.446" stroke="#EFC375" stroke-width="0.7847" stroke-miterlimit="10" stroke-linecap="round" stroke-linejoin="round"/>
</svg>
