<svg width="253" height="88" viewBox="0 0 253 88" fill="none" xmlns="http://www.w3.org/2000/svg">
<g filter="url(#filter0_bd_254_970)">
<rect x="24" y="20" width="205" height="40" rx="10" fill="url(#paint0_linear_254_970)" shape-rendering="crispEdges"/>
<rect x="23.5" y="19.5" width="206" height="41" rx="10.5" stroke="url(#paint1_linear_254_970)" shape-rendering="crispEdges"/>
</g>
<path d="M58.3813 42.1992C58.3813 43.0166 58.2759 43.7373 58.0649 44.3613C57.8628 44.9854 57.5728 45.5259 57.1948 45.9829C56.8257 46.4399 56.3862 46.8223 55.8765 47.1299C55.3667 47.4375 54.8086 47.6836 54.2021 47.8682C53.6045 48.0527 52.9673 48.1846 52.2905 48.2637C51.6226 48.3428 50.9414 48.3823 50.2471 48.3823C49.333 48.3823 48.4893 48.312 47.7158 48.1714C46.9424 48.0396 46.2129 47.8286 45.5273 47.5386C44.8506 47.2397 44.1958 46.8574 43.563 46.3916C42.939 45.9258 42.3149 45.3589 41.6909 44.6909L44.3804 41.9619C44.6265 42.5684 44.9648 43.1309 45.3955 43.6494C45.8262 44.1592 46.2964 44.5986 46.8062 44.9678C47.3247 45.3369 47.8608 45.627 48.4146 45.8379C48.9683 46.0488 49.4912 46.1543 49.9834 46.1543C50.5635 46.1543 51.1084 46.1147 51.6182 46.0356C52.1279 45.9478 52.5718 45.8071 52.9497 45.6138C53.3276 45.4204 53.6221 45.1655 53.833 44.8491C54.0527 44.5239 54.1626 44.1196 54.1626 43.6362C54.1626 43.2671 54.0791 42.9507 53.9121 42.687C53.7451 42.4233 53.5254 42.1992 53.2529 42.0146C52.9893 41.8213 52.686 41.6587 52.3433 41.5269C52.0005 41.395 51.6489 41.2852 51.2886 41.1973C50.937 41.1006 50.5898 41.0171 50.2471 40.9468C49.9043 40.8677 49.6011 40.7886 49.3374 40.7095C48.8188 40.5601 48.2783 40.4019 47.7158 40.2349C47.1533 40.0591 46.5996 39.8613 46.0547 39.6416C45.5098 39.4219 44.9912 39.1714 44.499 38.8901C44.0156 38.6001 43.5894 38.2617 43.2202 37.875C42.8511 37.4795 42.5566 37.0269 42.3369 36.5171C42.1172 35.9985 42.0073 35.4053 42.0073 34.7373C42.0073 33.9375 42.104 33.23 42.2974 32.6147C42.4995 31.9907 42.7808 31.4502 43.1411 30.9932C43.5015 30.5361 43.9277 30.1538 44.4199 29.8462C44.9121 29.5298 45.4526 29.2793 46.0415 29.0947C46.6304 28.9014 47.2544 28.7651 47.9136 28.686C48.5815 28.5981 49.2627 28.5542 49.957 28.5542C50.9062 28.5542 51.7676 28.6421 52.541 28.8179C53.3232 28.9937 54.0439 29.2441 54.7031 29.5693C55.3623 29.8945 55.9644 30.2856 56.5093 30.7427C57.063 31.1909 57.5815 31.6919 58.0649 32.2456L55.3755 34.9746C55.1646 34.3418 54.8701 33.7705 54.4922 33.2607C54.123 32.751 53.71 32.3159 53.2529 31.9556C52.7959 31.5864 52.3169 31.3052 51.8159 31.1118C51.3149 30.9097 50.8315 30.8086 50.3657 30.8086C49.7593 30.8086 49.2012 30.8525 48.6914 30.9404C48.1816 31.0195 47.7422 31.1558 47.373 31.3491C47.0127 31.5337 46.7314 31.7886 46.5293 32.1138C46.3271 32.4302 46.2261 32.8257 46.2261 33.3003C46.2261 33.6782 46.3008 33.999 46.4502 34.2627C46.5996 34.5264 46.7974 34.7505 47.0435 34.9351C47.2983 35.1196 47.584 35.2734 47.9004 35.3965C48.2168 35.5107 48.542 35.6118 48.876 35.6997C49.2188 35.7876 49.5527 35.8667 49.8779 35.937C50.2119 35.9985 50.5151 36.0688 50.7876 36.1479C51.3149 36.2974 51.8687 36.4556 52.4487 36.6226C53.0288 36.7896 53.6001 36.9873 54.1626 37.2158C54.7251 37.4355 55.2612 37.6904 55.771 37.9805C56.2808 38.2705 56.729 38.6177 57.1157 39.022C57.5024 39.4175 57.8101 39.8789 58.0386 40.4062C58.2671 40.9248 58.3813 41.5225 58.3813 42.1992ZM65.4346 33.8408L63.958 48H60.728L63.958 29.0156H68.7437L73.1865 43.5044L77.6821 29.0156H82.4678L85.1572 48H79.8311L78.2622 34.21L74.5576 48H69.772L65.4346 33.8408ZM106.699 38.9165V39.167C106.682 39.9053 106.603 40.6699 106.462 41.4609C106.33 42.252 106.141 43.043 105.895 43.834C105.649 44.625 105.354 45.4072 105.012 46.1807C104.669 46.9541 104.282 47.6924 103.852 48.3955C103.43 49.1074 102.973 49.771 102.48 50.3862C101.988 51.0103 101.47 51.5596 100.925 52.0342L98.9604 50.9004C99.2681 50.3818 99.5449 49.8149 99.791 49.1997C100.046 48.5933 100.274 47.9561 100.477 47.2881C100.679 46.6201 100.85 45.9346 100.991 45.2314C101.14 44.5283 101.263 43.8296 101.36 43.1353C101.457 42.4409 101.527 41.7598 101.571 41.0918C101.624 40.415 101.65 39.7734 101.65 39.167C101.65 38.6924 101.646 38.1562 101.637 37.5586C101.637 36.9521 101.602 36.3369 101.531 35.7129C101.47 35.0889 101.364 34.4824 101.215 33.8936C101.065 33.2959 100.841 32.7642 100.542 32.2983C100.252 31.8325 99.8745 31.459 99.4087 31.1777C98.9517 30.8965 98.3804 30.7559 97.6948 30.7559C97.0884 30.7559 96.5654 30.8613 96.126 31.0723C95.6953 31.2744 95.3262 31.5513 95.0186 31.9028C94.7197 32.2456 94.478 32.6455 94.2935 33.1025C94.1177 33.5596 93.9771 34.043 93.8716 34.5527C93.7749 35.0537 93.709 35.5635 93.6738 36.082C93.6475 36.5918 93.6343 37.0752 93.6343 37.5322V41.2104H99.3164V43.3857H93.6343V48H88.4004V38.3496C88.4004 36.9697 88.6201 35.6865 89.0596 34.5C89.499 33.3135 90.1187 32.2852 90.9185 31.415C91.7271 30.5361 92.6938 29.8506 93.8188 29.3584C94.9526 28.8574 96.2139 28.6069 97.6025 28.6069C98.543 28.6069 99.4219 28.7432 100.239 29.0156C101.065 29.2793 101.817 29.6484 102.494 30.123C103.17 30.5889 103.772 31.147 104.3 31.7974C104.836 32.439 105.28 33.1421 105.631 33.9067C105.992 34.6714 106.264 35.48 106.449 36.3325C106.633 37.1851 106.717 38.0464 106.699 38.9165ZM115.348 48H110.114V29.0156H119.448C120.327 29.0156 121.175 29.1211 121.992 29.332C122.81 29.5342 123.53 29.8594 124.154 30.3076C124.787 30.7471 125.288 31.3184 125.657 32.0215C126.035 32.7246 126.224 33.5771 126.224 34.5791C126.224 35.3613 126.057 36.0996 125.723 36.7939C125.398 37.4795 124.958 38.0947 124.405 38.6396C123.86 39.1758 123.231 39.624 122.52 39.9844C121.808 40.3359 121.069 40.5688 120.305 40.6831C120.647 41.2632 121.003 41.8125 121.373 42.3311C121.75 42.8496 122.128 43.3374 122.506 43.7944C122.893 44.2427 123.275 44.6602 123.653 45.0469C124.031 45.4248 124.392 45.772 124.734 46.0884C125.543 46.8267 126.343 47.4639 127.134 48H120.608C120.081 47.499 119.58 46.897 119.105 46.1938C118.701 45.5962 118.292 44.8579 117.879 43.979C117.475 43.0913 117.163 42.0674 116.943 40.9072H115.348V48ZM120.911 34.5791C120.911 33.3047 120.599 32.3687 119.975 31.771C119.36 31.1733 118.433 30.8745 117.193 30.8745H115.348V39.1143H117.193C117.853 39.1143 118.415 38.9912 118.881 38.7451C119.355 38.4902 119.742 38.1562 120.041 37.7432C120.34 37.3213 120.56 36.8379 120.7 36.293C120.841 35.748 120.911 35.1768 120.911 34.5791ZM138.01 48H132.776V31.4414H127.608V29.0156H143.178V31.4414H138.01V48Z" fill="#3279D0"/>
<path d="M151.102 48H145.868V29.0156H151.102V37.3081H158.036V29.0156H163.27V48H158.036V39.7207H151.102V48ZM172.802 48H167.568V29.0156H172.802V48ZM182.347 48H177.113V29.0156H186.447C187.326 29.0156 188.174 29.1211 188.991 29.332C189.809 29.5342 190.529 29.8594 191.153 30.3076C191.786 30.7471 192.287 31.3184 192.656 32.0215C193.034 32.7246 193.223 33.5771 193.223 34.5791C193.223 35.3613 193.056 36.0996 192.722 36.7939C192.397 37.4795 191.958 38.0947 191.404 38.6396C190.859 39.1758 190.23 39.624 189.519 39.9844C188.807 40.3359 188.068 40.5688 187.304 40.6831C187.646 41.2632 188.002 41.8125 188.372 42.3311C188.75 42.8496 189.127 43.3374 189.505 43.7944C189.892 44.2427 190.274 44.6602 190.652 45.0469C191.03 45.4248 191.391 45.772 191.733 46.0884C192.542 46.8267 193.342 47.4639 194.133 48H187.607C187.08 47.499 186.579 46.897 186.104 46.1938C185.7 45.5962 185.291 44.8579 184.878 43.979C184.474 43.0913 184.162 42.0674 183.942 40.9072H182.347V48ZM187.91 34.5791C187.91 33.3047 187.598 32.3687 186.974 31.771C186.359 31.1733 185.432 30.8745 184.192 30.8745H182.347V39.1143H184.192C184.852 39.1143 185.414 38.9912 185.88 38.7451C186.354 38.4902 186.741 38.1562 187.04 37.7432C187.339 37.3213 187.559 36.8379 187.699 36.293C187.84 35.748 187.91 35.1768 187.91 34.5791ZM210.23 48H196.598V29.0156H210.23V31.4414H201.832V37.3081H208.318V39.7207H201.832V45.5742H210.23V48Z" fill="#F99169"/>
<defs>
<filter id="filter0_bd_254_970" x="-17" y="-21" width="287" height="122" filterUnits="userSpaceOnUse" color-interpolation-filters="sRGB">
<feFlood flood-opacity="0" result="BackgroundImageFix"/>
<feGaussianBlur in="BackgroundImageFix" stdDeviation="20"/>
<feComposite in2="SourceAlpha" operator="in" result="effect1_backgroundBlur_254_970"/>
<feColorMatrix in="SourceAlpha" type="matrix" values="0 0 0 0 0 0 0 0 0 0 0 0 0 0 0 0 0 0 127 0" result="hardAlpha"/>
<feMorphology radius="1" operator="erode" in="SourceAlpha" result="effect2_dropShadow_254_970"/>
<feOffset dy="4"/>
<feGaussianBlur stdDeviation="12"/>
<feComposite in2="hardAlpha" operator="out"/>
<feColorMatrix type="matrix" values="0 0 0 0 0 0 0 0 0 0 0 0 0 0 0 0 0 0 0.25 0"/>
<feBlend mode="normal" in2="effect1_backgroundBlur_254_970" result="effect2_dropShadow_254_970"/>
<feBlend mode="normal" in="SourceGraphic" in2="effect2_dropShadow_254_970" result="shape"/>
</filter>
<linearGradient id="paint0_linear_254_970" x1="74.8916" y1="27.8431" x2="183.277" y2="108.462" gradientUnits="userSpaceOnUse">
<stop stop-color="white" stop-opacity="0.4"/>
<stop offset="1" stop-color="white" stop-opacity="0.2"/>
</linearGradient>
<linearGradient id="paint1_linear_254_970" x1="72.7413" y1="26.6667" x2="125.392" y2="94.0312" gradientUnits="userSpaceOnUse">
<stop stop-color="#3279D0"/>
<stop offset="0.343831" stop-color="#587EBC" stop-opacity="0.25"/>
<stop offset="0.67682" stop-color="#DD8E78" stop-opacity="0.25"/>
<stop offset="1" stop-color="#F99169"/>
</linearGradient>
</defs>
</svg>
